HIERARCHY
ROOT SpineBase
{
  OFFSET 0.000000 0.000000 0.000000
  CHANNELS 6 Xposition Yposition Zposition Zrotation Xrotation Yrotation
  JOINT SpineMid
  {
    OFFSET 0.000000 26.865050 0.000000
    CHANNELS 3 Zrotation Xrotation Yrotation
    JOINT SpineShoulder
    {
      OFFSET -0.017900 20.017710 -0.710813
      CHANNELS 3 Zrotation Xrotation Yrotation
      JOINT Neck
      {
        OFFSET -0.038849 6.647262 -0.536680
        CHANNELS 3 Zrotation Xrotation Yrotation
        JOINT Head
        {
          OFFSET 2.130380 12.604955 0.374280
          CHANNELS 3 Zrotation Xrotation Yrotation
          End Site
          {
            OFFSET 0 0 0
          }
        }
      }
      JOINT ShoulderLeft
      {
        OFFSET -12.400312 -2.278067 -7.749361
        CHANNELS 3 Zrotation Xrotation Yrotation
        JOINT ElbowLeft
        {
          OFFSET -5.461064 -22.972057 -2.665473
          CHANNELS 3 Zrotation Xrotation Yrotation
          JOINT WristLeft
          {
            OFFSET 0.962432 -20.462527 -5.780017
            CHANNELS 3 Zrotation Xrotation Yrotation
            JOINT HandLeft
            {
              OFFSET 0.803298 -5.028096 0.556552
              CHANNELS 3 Zrotation Xrotation Yrotation
              JOINT HandTipLeft
              {
                OFFSET 0.249710 -6.000057 -0.597729
                CHANNELS 3 Zrotation Xrotation Yrotation
                End Site
                {
                  OFFSET 0 0 0
                }
              }
              JOINT ThumbLeft
              {
                OFFSET -3.208305 -1.097535 -2.263973
                CHANNELS 3 Zrotation Xrotation Yrotation
                End Site
                {
                  OFFSET 0 0 0
                }
              }
            }
          }
        }
      }
      JOINT ShoulderRight
      {
        OFFSET 11.488150 -1.845271 4.464258
        CHANNELS 3 Zrotation Xrotation Yrotation
        JOINT ElbowRight
        {
          OFFSET 1.849278 -25.828426 4.656887
          CHANNELS 3 Zrotation Xrotation Yrotation
          JOINT WristRight
          {
            OFFSET 2.191769 -20.856989 -5.678670
            CHANNELS 3 Zrotation Xrotation Yrotation
            JOINT HandRight
            {
              OFFSET -0.980918 -5.779281 -1.414142
              CHANNELS 3 Zrotation Xrotation Yrotation
              JOINT HandTipRight
              {
                OFFSET -0.528936 -6.172670 -1.119993
                CHANNELS 3 Zrotation Xrotation Yrotation
                End Site
                {
                  OFFSET 0 0 0
                }
              }
              JOINT ThumbRight
              {
                OFFSET -2.074447 0.339701 -2.115884
                CHANNELS 3 Zrotation Xrotation Yrotation
                End Site
                {
                  OFFSET 0 0 0
                }
              }
            }
          }
        }
      }
    }
  }
  JOINT HipLeft
  {
    OFFSET -5.833523 0.918558 -5.224610
    CHANNELS 3 Zrotation Xrotation Yrotation
    JOINT KneeLeft
    {
      OFFSET -5.844201 -29.909130 1.009627
      CHANNELS 3 Zrotation Xrotation Yrotation
      JOINT AnkleLeft
      {
        OFFSET -1.349941 -32.299425 9.439676
        CHANNELS 3 Zrotation Xrotation Yrotation
        JOINT FootLeft
        {
          OFFSET 3.202801 -2.455979 -9.620823
          CHANNELS 3 Zrotation Xrotation Yrotation
          End Site
          {
            OFFSET 0 0 0
          }
        }
      }
    }
  }
  JOINT HipRight
  {
    OFFSET 5.368080 0.532728 -1.054945
    CHANNELS 3 Zrotation Xrotation Yrotation
    JOINT KneeRight
    {
      OFFSET -2.888321 -24.744430 1.761743
      CHANNELS 3 Zrotation Xrotation Yrotation
      JOINT AnkleRight
      {
        OFFSET -9.313554 -37.817023 7.687500
        CHANNELS 3 Zrotation Xrotation Yrotation
        JOINT FootRight
        {
          OFFSET -0.919137 -5.306386 -2.514521
          CHANNELS 3 Zrotation Xrotation Yrotation
          End Site
          {
            OFFSET 0 0 0
          }
        }
      }
    }
  }
}
MOTION
Frames: 13
Frame Time: 0.033333
27.627995 68.097548 368.347256 -0.000000 0.000000 -20.417188 -0.000000 0.000000 20.417188 -0.000000 0.000000 0.000000 -0.000000 0.000000 0.000000 0.000000 0.000000 0.000000 -0.000000 0.000000 0.000000 -0.000000 0.000000 0.000000 -0.000000 0.000000 0.000000 -0.000000 0.000000 0.000000 0.000000 0.000000 0.000000 0.000000 0.000000 0.000000 -0.000000 0.000000 0.000000 -0.000000 0.000000 0.000000 -0.000000 0.000000 0.000000 -0.000000 0.000000 0.000000 0.000000 0.000000 0.000000 0.000000 0.000000 0.000000 -0.000000 0.000000 20.417188 -0.000000 0.000000 0.000000 -0.000000 0.000000 0.000000 0.000000 0.000000 0.000000 -0.000000 0.000000 20.417188 -0.000000 0.000000 0.000000 -0.000000 0.000000 0.000000 0.000000 0.000000 0.000000
27.575733 68.090056 368.339464 -0.082714 0.017632 -20.712562 0.083604 0.012762 20.712565 -0.000000 0.000000 0.000000 -0.000000 0.000000 0.000000 0.000000 0.000000 0.000000 -0.000000 0.000000 0.000000 -0.000000 0.000000 0.000000 -0.000000 0.000000 0.000000 -0.683175 -2.053895 -0.029736 0.000000 0.000000 0.000000 0.000000 0.000000 0.000000 -0.000000 0.000000 0.000000 -0.000000 0.000000 0.000000 -1.717796 -0.667299 0.523031 2.415500 1.764148 -0.776578 0.000000 0.000000 0.000000 0.000000 0.000000 0.000000 0.083604 0.012762 20.712565 -0.000000 0.000000 0.000000 -0.000000 0.000000 0.000000 0.000000 0.000000 0.000000 0.083604 0.012762 20.712565 -0.000000 0.000000 0.000000 11.017575 18.978910 -9.766489 0.000000 0.000000 0.000000
27.530742 68.079039 368.338519 -0.152006 0.030344 -20.948145 0.152808 0.026008 20.948151 -0.000000 0.000000 0.000000 -0.000000 0.000000 0.000000 0.000000 0.000000 0.000000 -0.000000 0.000000 0.000000 -0.000000 0.000000 0.000000 1.321833 0.378239 0.202085 -2.662329 -4.134004 -0.288509 0.000000 0.000000 0.000000 0.000000 0.000000 0.000000 0.103420 1.379063 0.116391 0.306149 -2.800398 -0.366941 -3.850394 -0.004825 1.388051 4.884898 3.130390 -1.579931 0.000000 0.000000 0.000000 0.000000 0.000000 0.000000 0.152808 0.026008 20.948151 -0.000000 0.000000 0.000000 -0.000000 0.000000 0.000000 0.000000 0.000000 0.000000 0.152808 0.026008 20.948151 -0.000000 0.000000 0.000000 20.794507 30.167992 -18.968304 0.000000 0.000000 0.000000
27.493022 68.064496 368.344420 -0.207953 0.038157 -21.123985 0.207730 0.039351 21.123983 -0.000000 0.000000 0.000000 -0.000000 0.000000 0.000000 0.000000 0.000000 0.000000 -0.000000 0.000000 0.000000 0.128389 -0.838148 -0.074900 1.789914 1.360996 0.335054 -3.867166 -5.609776 -0.430053 0.000000 0.000000 0.000000 0.000000 0.000000 0.000000 0.155019 1.860568 0.159109 0.400327 -3.853351 -0.501035 -5.643491 -0.245137 2.064353 7.310442 4.042047 -2.376665 0.000000 0.000000 0.000000 0.000000 0.000000 0.000000 0.207730 0.039351 21.123983 -0.000000 0.000000 0.000000 -0.000000 0.000000 0.000000 0.000000 0.000000 0.000000 -0.668201 -0.252041 21.051651 0.922137 -0.042716 0.071050 27.869045 36.114902 -25.835919 0.000000 0.000000 0.000000
27.462571 68.046429 368.357169 -0.250620 0.041092 -21.240155 0.248482 0.052494 21.240131 -0.000000 0.000000 0.000000 -0.148122 -0.819304 0.141812 0.000000 0.000000 0.000000 -0.000000 0.000000 0.000000 0.152206 -1.056691 -0.091524 2.333821 1.694853 0.410497 -4.986553 -6.671207 -0.557755 0.000000 0.000000 0.000000 0.000000 0.000000 0.000000 0.207416 2.214240 0.192591 0.454921 -4.680507 -0.606090 -7.238109 -0.606928 2.679354 9.576791 4.452067 -3.122285 0.000000 0.000000 0.000000 0.000000 0.000000 0.000000 0.248482 0.052494 21.240131 -0.000000 0.000000 0.000000 -0.000000 0.000000 0.000000 0.000000 0.000000 0.000000 -0.885150 -0.392979 21.150678 1.217994 0.006375 0.086017 32.329171 39.385598 -30.300651 0.000000 0.000000 0.000000
27.439392 68.024836 368.376764 -0.280061 0.039163 -21.296747 0.275160 0.065230 21.296686 -0.000000 0.000000 0.000000 -0.180958 -0.972105 0.168136 0.000000 0.000000 0.000000 -0.000000 0.000000 0.000000 0.166629 -1.243757 -0.104072 2.866006 1.969827 0.472483 -6.020463 -7.313495 -0.663642 0.000000 0.000000 0.000000 0.000000 0.000000 0.000000 0.261168 2.445539 0.217439 0.469611 -5.284471 -0.684074 -8.548349 -1.048769 3.196893 11.563806 4.327173 -3.765241 0.000000 0.000000 0.000000 0.000000 0.000000 0.000000 0.275160 0.065230 21.296686 -0.000000 0.000000 0.000000 -0.000000 0.000000 0.000000 0.000000 0.000000 0.000000 -1.098638 -0.559741 21.193348 1.506808 0.085937 0.096279 34.623651 41.296371 -32.748203 0.000000 0.000000 0.000000
27.434679 67.991602 368.409027 -0.302265 0.040226 -21.262043 0.296278 0.072123 21.261962 -0.000000 0.000000 0.000000 -0.054228 -1.179162 0.200396 0.000000 0.000000 0.000000 -0.000000 0.000000 0.000000 0.177005 -1.419859 -0.114984 3.366119 2.165376 0.517368 -7.407393 -7.577917 -0.721636 0.000000 0.000000 0.000000 0.000000 0.000000 0.000000 0.473234 2.378047 0.246642 0.097649 -5.426351 -0.712132 -8.922135 -1.634178 3.424314 12.634591 2.891490 -4.042802 0.000000 0.000000 0.000000 0.000000 0.000000 0.000000 0.296278 0.072123 21.261962 -0.000000 0.000000 0.000000 -0.000000 0.000000 0.000000 0.000000 0.000000 0.000000 -1.387344 -0.863288 21.145198 1.907692 0.264794 0.100731 28.500148 45.099738 -28.962746 0.000000 0.000000 0.000000
27.433760 67.957954 368.445964 -0.298552 0.026569 -21.175781 0.287991 0.083071 21.175642 -0.000000 0.000000 0.000000 -0.065216 -1.299599 0.220906 0.000000 0.000000 0.000000 -0.000000 0.000000 0.000000 0.144000 -1.561377 -0.112582 4.065535 2.403537 0.568117 -7.630753 -6.636670 -0.760506 0.000000 0.000000 0.000000 0.000000 0.000000 0.000000 0.499990 2.346340 0.248769 0.046704 -5.401221 -0.711193 -9.569173 -2.717284 3.698122 14.192509 2.650494 -4.650508 0.000000 0.000000 0.000000 0.000000 0.000000 0.000000 0.287991 0.083071 21.175642 -0.000000 0.000000 0.000000 -0.000000 0.000000 0.000000 0.000000 0.000000 0.000000 -1.627812 -1.186770 21.055069 2.244152 0.496199 0.092400 25.416419 41.446216 -25.471903 0.000000 0.000000 0.000000
27.462066 67.936900 368.497224 -0.231607 -0.015640 -21.094577 0.210458 0.097949 21.094366 -0.000000 0.000000 0.000000 -0.207338 -1.381906 0.237237 0.000000 0.000000 0.000000 -0.000000 0.000000 0.000000 0.125672 -1.664768 -0.112434 4.848947 2.240078 0.584942 -8.918685 -6.953588 -0.804283 0.000000 0.000000 0.000000 0.000000 0.000000 0.000000 0.397683 2.412610 0.236934 -0.167035 -5.813433 -0.666971 -9.570853 -4.657853 4.002743 16.253782 0.592435 -5.466525 0.000000 0.000000 0.000000 0.000000 0.000000 0.000000 0.210458 0.097949 21.094366 -0.000000 0.000000 0.000000 -0.000000 0.000000 0.000000 0.000000 0.000000 0.000000 -1.955290 -1.404184 20.960300 3.171264 1.217387 0.064793 23.934897 40.796967 -24.590724 0.000000 0.000000 0.000000
27.475956 67.910278 368.543830 -0.190738 -0.056374 -20.951776 0.157968 0.120851 20.951515 -0.000000 0.000000 0.000000 -0.399420 -1.344172 0.234308 0.000000 0.000000 0.000000 -0.000000 0.000000 0.000000 0.137474 -1.704980 -0.117471 5.282063 2.155487 0.606038 -9.986849 -5.710280 -0.704341 0.000000 0.000000 0.000000 0.000000 0.000000 0.000000 0.301786 2.284329 0.212696 -0.651018 -6.324870 -0.590951 -8.232480 -5.744155 4.000920 14.691389 0.852562 -5.450566 0.000000 0.000000 0.000000 0.000000 0.000000 0.000000 0.157968 0.120851 20.951515 -0.685454 0.533124 -0.219666 0.687522 -0.530454 0.226038 0.000000 0.000000 0.000000 -2.133338 -1.407495 20.805913 3.277286 1.208063 0.070541 24.489199 40.948908 -25.043234 0.000000 0.000000 0.000000
27.459396 67.898354 368.572257 -0.174548 -0.083924 -20.825463 0.133308 0.140496 20.825171 -0.000000 0.000000 0.000000 -0.605022 -1.251416 0.222743 0.000000 0.000000 0.000000 -0.000000 0.000000 0.000000 0.150540 -1.638072 -0.117890 5.172256 0.978756 0.480232 -10.217288 -3.745705 -0.277884 0.000000 0.000000 0.000000 0.000000 0.000000 0.000000 0.026217 1.991870 0.147360 -0.093408 -7.154048 -0.689621 -7.908395 -1.594612 3.882185 12.055484 -4.033392 -3.550756 0.000000 0.000000 0.000000 0.000000 0.000000 0.000000 0.133308 0.140496 20.825171 -0.846956 0.652804 -0.270357 0.850081 -0.648729 0.279995 0.000000 0.000000 0.000000 -2.154216 -1.231360 20.671604 2.624573 0.475195 0.120901 32.234895 42.010915 -31.046211 0.000000 0.000000 0.000000
27.363800 67.889830 368.562688 -0.272077 -0.062759 -20.763162 0.232159 0.155135 20.762698 -0.000000 0.000000 0.000000 -0.763330 -1.063754 0.195205 0.000000 0.000000 0.000000 -0.000000 0.000000 0.000000 0.172630 -1.671995 -0.125397 4.988695 0.778398 0.444628 -9.894433 -2.861084 -0.150456 0.000000 0.000000 0.000000 0.000000 0.000000 0.000000 0.277189 2.352390 0.213491 1.069845 -6.747521 -0.958812 -13.426187 3.895030 4.685448 15.251383 -11.177491 -2.318051 0.000000 0.000000 0.000000 0.000000 0.000000 0.000000 0.232159 0.155135 20.762698 -0.864417 0.703912 -0.277155 0.867876 -0.699642 0.287764 0.000000 0.000000 0.000000 -1.658651 -1.042480 20.644700 2.191682 0.453579 0.094678 33.953563 42.208584 -32.497839 0.000000 0.000000 0.000000
27.200802 67.889960 368.503232 -0.425830 -0.009840 -20.803706 0.394574 0.160438 20.803117 -0.000000 0.000000 0.000000 -0.993310 -0.692519 0.140357 0.000000 0.000000 0.000000 -0.000000 0.000000 0.000000 0.225464 -1.691267 -0.140484 4.657035 0.973336 0.455493 -7.698057 -2.369480 -0.281036 0.000000 0.000000 0.000000 0.000000 0.000000 0.000000 0.736332 2.286931 0.282715 2.847542 -4.440500 -1.308782 -11.551156 9.763234 2.605235 10.810113 -16.373718 0.859674 0.000000 0.000000 0.000000 0.000000 0.000000 0.000000 1.301906 0.296272 20.868013 -1.740416 0.949767 -0.337402 0.848715 -0.748375 0.284412 0.000000 0.000000 0.000000 -1.085057 -1.072898 20.735050 1.820547 0.629241 0.046286 27.875135 41.740793 -27.487814 0.000000 0.000000 0.000000
